<?xml version="1.0" encoding="utf-8"?><svg xmlns="http://www.w3.org/2000/svg" xmlns:xlink="http://www.w3.org/1999/xlink" width="1605" height="990" preserveAspectRatio="xMidYMid" viewBox="0 0 1605 990" style="z-index:1;margin-right:-1.99519px;display:block;background-repeat-y:initial;background-repeat-x:initial;background-color:rgb(255, 255, 255);animation-play-state:paused" ><g transform="translate(802.5,495) scale(1,1) translate(-802.5,-495)" style="transform:matrix(1, 0, 0, 1, 0, 0);animation-play-state:paused" ><linearGradient id="lg-0.4574461112037391" x1="0" x2="1" y1="0" y2="0" style="animation-play-state:paused" ><stop stop-color="#ff00ff" offset="0" style="animation-play-state:paused" ></stop>

  
<stop stop-color="#00ffff" offset="1" style="animation-play-state:paused" ></stop></linearGradient>
<path d="M 978 495 C 978 546.6 892.2 602.8 842.6 618.8 C 793 634.8 680.8 647.4 650 605.6 C 619.2 563.8 617 424.4 647 382.6 C 677 340.8 792.2 358.6 841.8 374.6 C 891.4 390.6 978 443.4 978 495" fill="url(#lg-0.4574461112037391)" opacity="0.45000000000000007" style="opacity:0.45;animation-play-state:paused" ></path>
<path d="M 990.2 495 C 990.2 545.4 891.6 605.6 844 621.6 C 796.4 637.6 700.6 631.2 671.2 590.8 C 641.8 550.4 647.4 444.2 676.8 403.8 C 706.2 363.4 792.8 363.4 840.4 378.6 C 888 393.8 990.2 444.6 990.2 495" fill="url(#lg-0.4574461112037391)" opacity="0.45000000000000007" style="opacity:0.45;animation-play-state:paused" ></path>
<path d="M 970.6 495 C 970.6 545.2 891.6 608.4 844.2 623.6 C 796.8 638.8 689.6 639 660.4 598.6 C 631.2 558.2 631 431.8 660.2 391.4 C 689.4 351 794.6 358.4 842 374.4 C 889.4 390.4 970.6 444.8 970.6 495" fill="url(#lg-0.4574461112037391)" opacity="0.45000000000000007" style="opacity:0.45;animation-play-state:paused" ></path>
<path d="M 993.8 495 C 993.8 545.8 890 598 841.2 613.6 C 792.4 629.2 694.4 636.8 664.2 595.8 C 634 554.8 647.6 445.4 677.8 404.2 C 708 363 790.6 366.4 839.4 382 C 888.2 397.6 993.8 444.2 993.8 495" fill="url(#lg-0.4574461112037391)" opacity="0.45000000000000007" style="opacity:0.45;animation-play-state:paused" ></path>
<path d="M 982.4 495 C 982.4 546.6 890 600.2 841.4 616 C 792.8 631.8 708 627.2 678.2 585.6 C 648.4 544 629 432.2 658.8 390.6 C 688.6 349 799.4 340.2 848 356 C 896.6 371.8 982.4 443.4 982.4 495" fill="url(#lg-0.4574461112037391)" opacity="0.45000000000000007" style="opacity:0.45;animation-play-state:paused" ></path></g></svg>