<svg xmlns="http://www.w3.org/2000/svg" xmlns:xlink="http://www.w3.org/1999/xlink" version="1.1" width="1000" height="1000" viewBox="0 0 1000 1000" xml:space="preserve">
<desc>Created with Fabric.js 3.5.0</desc>
<defs>
</defs>
<rect x="0" y="0" width="100%" height="100%" fill="#ffffff"/>
<g transform="matrix(-1 0 0 -1 500 500)" id="6791">
<g style="">
		<g transform="matrix(1 0 0 1 0 -128.8229)">
<linearGradient id="SVGID_14" gradientUnits="objectBoundingBox" gradientTransform="matrix(1 0 0 1 183 261.6771)" x1="0" y1="0" x2="1" y2="0">
<stop offset="0%" style="stop-color:rgb(255,0,255);stop-opacity: 1"/>
<stop offset="100%" style="stop-color:rgb(0,255,255);stop-opacity: 1"/>
</linearGradient>
<path style="stroke: none; stroke-width: 1; stroke-dasharray: none; stroke-linecap: butt; stroke-dashoffset: 0; stroke-linejoin: miter; stroke-miterlimit: 4; is-custom-font: none; font-file-url: none; fill: url(#SVGID_14); fill-rule: nonzero; opacity: 0.4;" transform=" translate(-183, -261.6771)" d="M 0 0 L 0 429.389 Q 36.6 466.536 73.2 447.124 T 146.4 451.111 T 219.6 428.207 T 292.8 463.398 T 366 453.672 L 366 0 Z" stroke-linecap="round"/>
</g>
		<g transform="matrix(1 0 0 1 0 -144.7667)">
<linearGradient id="SVGID_15" gradientUnits="objectBoundingBox" gradientTransform="matrix(1 0 0 1 183 245.7333)" x1="0" y1="0" x2="1" y2="0">
<stop offset="0%" style="stop-color:rgb(255,0,255);stop-opacity: 1"/>
<stop offset="100%" style="stop-color:rgb(0,255,255);stop-opacity: 1"/>
</linearGradient>
<path style="stroke: none; stroke-width: 1; stroke-dasharray: none; stroke-linecap: butt; stroke-dashoffset: 0; stroke-linejoin: miter; stroke-miterlimit: 4; is-custom-font: none; font-file-url: none; fill: url(#SVGID_15); fill-rule: nonzero; opacity: 0.4;" transform=" translate(-183, -245.7333)" d="M 0 0 L 0 470.152 Q 36.6 499.562 73.2 463.734 T 146.4 430.205 T 219.6 460.617 T 292.8 471.621 T 366 485.208 L 366 0 Z" stroke-linecap="round"/>
</g>
		<g transform="matrix(1 0 0 1 0 -141.0704)">
<linearGradient id="SVGID_16" gradientUnits="objectBoundingBox" gradientTransform="matrix(1 0 0 1 183 249.4296)" x1="0" y1="0" x2="1" y2="0">
<stop offset="0%" style="stop-color:rgb(255,0,255);stop-opacity: 1"/>
<stop offset="100%" style="stop-color:rgb(0,255,255);stop-opacity: 1"/>
</linearGradient>
<path style="stroke: none; stroke-width: 1; stroke-dasharray: none; stroke-linecap: butt; stroke-dashoffset: 0; stroke-linejoin: miter; stroke-miterlimit: 4; is-custom-font: none; font-file-url: none; fill: url(#SVGID_16); fill-rule: nonzero; opacity: 0.4;" transform=" translate(-183, -249.4296)" d="M 0 0 L 0 432.113 Q 36.6 476.202 73.2 443.603 T 146.4 447.847 T 219.6 444.726 T 292.8 457.979 T 366 465.312 L 366 0 Z" stroke-linecap="round"/>
</g>
		<g transform="matrix(1 0 0 1 0 -134.6112)">
<linearGradient id="SVGID_17" gradientUnits="objectBoundingBox" gradientTransform="matrix(1 0 0 1 183 255.8888)" x1="0" y1="0" x2="1" y2="0">
<stop offset="0%" style="stop-color:rgb(255,0,255);stop-opacity: 1"/>
<stop offset="100%" style="stop-color:rgb(0,255,255);stop-opacity: 1"/>
</linearGradient>
<path style="stroke: none; stroke-width: 1; stroke-dasharray: none; stroke-linecap: butt; stroke-dashoffset: 0; stroke-linejoin: miter; stroke-miterlimit: 4; is-custom-font: none; font-file-url: none; fill: url(#SVGID_17); fill-rule: nonzero; opacity: 0.4;" transform=" translate(-183, -255.8888)" d="M 0 0 L 0 456.201 Q 36.6 487.922 73.2 454.59 T 146.4 435.402 T 219.6 487.013 T 292.8 451.69 T 366 468.47 L 366 0 Z" stroke-linecap="round"/>
</g>
</g>
</g>
</svg>